<svg width="92" height="92" viewBox="0 0 92 92" fill="none" xmlns="http://www.w3.org/2000/svg">
  <g clip-path="url(#clip0_1318_6150)">
    <path d="M83.3418 25.3306H14.3418C12.225 25.3306 10.1947 26.1756 8.6944 27.6759C7.19409 29.1762 6.34912 31.2066 6.34912 33.3233V79.0139C6.34912 81.1307 7.19409 83.1611 8.6944 84.6614C10.1947 86.1617 12.225 87.0066 14.3418 87.0066H83.3418C85.4585 87.0066 87.4889 86.1617 88.9892 84.6614C90.4895 83.1611 91.3345 81.1307 91.3345 79.0139V33.3233C91.3345 31.2066 90.4895 29.1762 88.9892 27.6759C87.4889 26.1756 85.4585 25.3306 83.3418 25.3306Z" fill="#F2F2F7"/>
    <path d="M83.3346 25.3306H14.3346C12.257 25.3306 10.264 26.159 8.79184 27.6312C7.31963 29.1034 6.49121 31.0964 6.49121 33.174V46.8993H91.1923V33.174C91.1923 31.0964 90.3639 29.1034 88.8917 27.6312C87.4195 26.159 85.4265 25.3306 83.3489 25.3306H83.3346Z" fill="#4A89FF"/>
    <path d="M91.1779 46.8994H6.49121V79.0139C6.49121 81.1307 7.33619 83.1611 8.8365 84.6614C10.3368 86.1617 12.3671 87.0066 14.4839 87.0066H83.1852C85.302 87.0066 87.3324 86.1617 88.8327 84.6614C90.333 83.1611 91.1779 81.1307 91.1779 79.0139V46.8994Z" fill="white"/>
    <path d="M78.4961 9.7662H9.49609C7.37931 9.7662 5.34896 10.6112 3.84865 12.1115C2.34835 13.6118 1.50337 15.6422 1.50337 17.7589V63.4496C1.50337 65.5664 2.34835 67.5967 3.84865 69.097C5.34896 70.5973 7.37931 71.4423 9.49609 71.4423H78.4961C80.6128 71.4423 82.6432 70.5973 84.1435 69.097C85.6438 67.5967 86.4888 65.5664 86.4888 63.4496V17.7589C86.4888 15.6422 85.6438 13.6118 84.1435 12.1115C82.6432 10.6112 80.6128 9.7662 78.4961 9.7662Z" fill="#F2F2F7"/>
    <path d="M78.4889 9.7662H9.48887C7.41126 9.7662 5.41826 10.5947 3.94606 12.0669C2.47386 13.5391 1.64543 15.5321 1.64543 17.6097V31.335H86.3464V17.6097C86.3464 15.5321 85.518 13.5391 84.0458 12.0669C82.5736 10.5947 80.5806 9.7662 78.503 9.7662H78.4889Z" fill="#4A89FF"/>
    <path d="M86.332 31.335H1.64543V63.4496C1.64543 65.5664 2.4904 67.5967 3.99071 69.097C5.49102 70.5973 7.52137 71.4423 9.63815 71.4423H78.3394C80.4562 71.4423 82.4865 70.5973 83.9868 69.097C85.4871 67.5967 86.332 65.5664 86.332 63.4496V31.335Z" fill="white"/>
  </g>
  <defs>
    <clipPath id="clip0_1318_6150">
      <rect width="92" height="92" fill="white"/>
    </clipPath>
  </defs>
</svg> 