<svg width="92" height="92" viewBox="0 0 92 92" fill="none" xmlns="http://www.w3.org/2000/svg">
  <g clip-path="url(#clip0_1318_6149)">
    <path d="M75.1665 1.91699H16.8332C15.5005 1.91699 14.2223 2.4512 13.284 3.38954C12.3456 4.32789 11.8115 5.60609 11.8115 6.93866V20.7387H80.1882V6.93866C80.1882 5.60609 79.654 4.32789 78.7157 3.38954C77.7773 2.4512 76.4991 1.91699 75.1665 1.91699Z" fill="#4A89FF"/>
    <path d="M80.1882 20.7391H11.8115V84.8946C11.8115 86.2272 12.3456 87.5054 13.284 88.4438C14.2223 89.3821 15.5005 89.9163 16.8332 89.9163H75.1665C76.4991 89.9163 77.7773 89.3821 78.7157 88.4438C79.654 87.5054 80.1882 86.2272 80.1882 84.8946V20.7391Z" fill="#F2F2F7"/>
    <path d="M26.8774 11.3269C26.8774 12.4932 26.4103 13.6118 25.5791 14.4429C24.748 15.274 23.6293 15.7411 22.4632 15.7411C21.297 15.7411 20.1783 15.274 19.3472 14.4429C18.5161 13.6118 18.049 12.4932 18.049 11.3269C18.049 10.1607 18.5161 9.04204 19.3472 8.21092C20.1783 7.37979 21.297 6.91272 22.4632 6.91272C23.6293 6.91272 24.748 7.37979 25.5791 8.21092C26.4103 9.04204 26.8774 10.1607 26.8774 11.3269Z" fill="white"/>
    <path d="M36.3141 11.3269C36.3141 12.4932 35.8471 13.6118 35.0159 14.4429C34.1848 15.274 33.0661 15.7411 31.9 15.7411C30.7338 15.7411 29.6151 15.274 28.784 14.4429C27.9529 13.6118 27.4858 12.4932 27.4858 11.3269C27.4858 10.1607 27.9529 9.04204 28.784 8.21092C29.6151 7.37979 30.7338 6.91272 31.9 6.91272C33.0661 6.91272 34.1848 7.37979 35.0159 8.21092C35.8471 9.04204 36.3141 10.1607 36.3141 11.3269Z" fill="white"/>
    <path d="M45.7517 11.3269C45.7517 12.4932 45.2846 13.6118 44.4535 14.4429C43.6224 15.274 42.5037 15.7411 41.3376 15.7411C40.1714 15.7411 39.0527 15.274 38.2216 14.4429C37.3905 13.6118 36.9234 12.4932 36.9234 11.3269C36.9234 10.1607 37.3905 9.04204 38.2216 8.21092C39.0527 7.37979 40.1714 6.91272 41.3376 6.91272C42.5037 6.91272 43.6224 7.37979 44.4535 8.21092C45.2846 9.04204 45.7517 10.1607 45.7517 11.3269Z" fill="white"/>
    <path d="M52.4316 45.2617H25.6699C24.3372 45.2617 23.059 45.7959 22.1207 46.7343C21.1824 47.6726 20.6482 48.9508 20.6482 50.2834V66.8584C20.6482 68.191 21.1824 69.4692 22.1207 70.4075C23.059 71.3459 24.3372 71.8801 25.6699 71.8801H52.4316C53.7642 71.8801 55.0424 71.3459 55.9807 70.4075C56.9191 69.4692 57.4532 68.191 57.4532 66.8584V50.2834C57.4532 48.9508 56.9191 47.6726 55.9807 46.7343C55.0424 45.7959 53.7642 45.2617 52.4316 45.2617Z" fill="white"/>
    <path d="M71.3563 36.4351H66.3346V41.4567H71.3563V36.4351Z" fill="#4A89FF"/>
    <path d="M71.3563 46.4784H66.3346V51.5H71.3563V46.4784Z" fill="#4A89FF"/>
    <path d="M71.3563 56.5217H66.3346V61.5433H71.3563V56.5217Z" fill="#4A89FF"/>
    <path d="M71.3563 66.5649H66.3346V71.5866H71.3563V66.5649Z" fill="#4A89FF"/>
    <path d="M61.4746 36.4351H41.4102V41.4567H61.4746V36.4351Z" fill="#4A89FF"/>
    <path d="M61.4746 46.4784H61.4746V51.5H61.4746V46.4784Z" fill="#4A89FF"/>
    <path d="M61.4746 56.5217H61.4746V61.5433H61.4746V56.5217Z" fill="#4A89FF"/>
    <path d="M61.4746 66.5649H61.4746V71.5866H61.4746V66.5649Z" fill="#4A89FF"/>
  </g>
  <defs>
    <clipPath id="clip0_1318_6149">
      <rect width="92" height="92" fill="white"/>
    </clipPath>
  </defs>
</svg> 